<?xml version="1.0" encoding="UTF-8" standalone="no"?>
<!-- Generator: Adobe Illustrator 14.0.0, SVG Export Plug-In . SVG Version: 6.00 Build 43363)  -->

<svg
   xmlns:dc="http://purl.org/dc/elements/1.1/"
   xmlns:cc="http://creativecommons.org/ns#"
   xmlns:rdf="http://www.w3.org/1999/02/22-rdf-syntax-ns#"
   xmlns:svg="http://www.w3.org/2000/svg"
   xmlns="http://www.w3.org/2000/svg"
   xmlns:xlink="http://www.w3.org/1999/xlink"
   xmlns:sodipodi="http://sodipodi.sourceforge.net/DTD/sodipodi-0.dtd"
   xmlns:inkscape="http://www.inkscape.org/namespaces/inkscape"
   version="1.1"
   x="0px"
   y="0px"
   width="23px"
   height="23px"
   viewBox="0 0 23 23"
   enable-background="new 0 0 23 23"
   xml:space="preserve"
   id="svg2"
   inkscape:version="0.91 r13725"
   sodipodi:docname="CinnVIIStarkMenu-symbolic.svg"><metadata
     id="metadata14"><rdf:RDF><cc:Work
         rdf:about=""><dc:format>image/svg+xml</dc:format><dc:type
           rdf:resource="http://purl.org/dc/dcmitype/StillImage" /><dc:title></dc:title></cc:Work></rdf:RDF></metadata><defs
     id="defs12"><linearGradient
       id="linearGradient10583"><stop
         id="stop10585"
         offset="0"
         style="stop-color:#82280f;stop-opacity:1" /><stop
         id="stop10587"
         offset="1"
         style="stop-color:#e7c322;stop-opacity:0" /></linearGradient><linearGradient
       id="linearGradient9319"><stop
         style="stop-color:#000000;stop-opacity:1;"
         offset="0"
         id="stop9321" /><stop
         style="stop-color:#000079;stop-opacity:0;"
         offset="1"
         id="stop9323" /></linearGradient><linearGradient
       x1="17.228546"
       y1="7.0761948"
       x2="27.84951"
       y2="7.0761948"
       id="linearGradient5573"
       xlink:href="#defitem14-7-3-2-5"
       gradientUnits="userSpaceOnUse"
       gradientTransform="matrix(1.2739401,0,0,1.0875406,-6.2008423,-0.01930337)" /><linearGradient
       x1="69.431503"
       y1="50.4006"
       x2="70.987297"
       y2="51.693298"
       id="defitem14-7-3-2-5"
       gradientUnits="userSpaceOnUse"><stop
         id="stop46-8-0-6-7"
         style="stop-color:#ffffff;stop-opacity:1"
         offset="0" /><stop
         id="stop47-5-5-6-0"
         style="stop-color:#979797;stop-opacity:1"
         offset="1" /></linearGradient><radialGradient
       cx="96.124382"
       cy="-26.100422"
       r="38.212933"
       fx="96.124382"
       fy="-26.100426"
       id="radialGradient5575"
       xlink:href="#linearGradient6332-24-473-272-4-0-8-5"
       gradientUnits="userSpaceOnUse"
       gradientTransform="matrix(-1.2212156e-4,0.18553945,-0.34382242,-1.9158651e-4,9.2925395,-15.478185)" /><linearGradient
       id="linearGradient6332-24-473-272-4-0-8-5"><stop
         id="stop6164-62-5-7-9"
         style="stop-color:#f9650d;stop-opacity:1"
         offset="0" /><stop
         id="stop6166-1-2-4-4"
         style="stop-color:#82220b;stop-opacity:1"
         offset="1" /></linearGradient></defs><sodipodi:namedview
     pagecolor="#ffffff"
     bordercolor="#666666"
     borderopacity="1"
     objecttolerance="10"
     gridtolerance="10"
     guidetolerance="10"
     inkscape:pageopacity="0"
     inkscape:pageshadow="2"
     inkscape:window-width="1280"
     inkscape:window-height="719"
     id="namedview10"
     showgrid="false"
     inkscape:zoom="6.6521739"
     inkscape:cx="-10.771984"
     inkscape:cy="12.922167"
     inkscape:window-x="0"
     inkscape:window-y="27"
     inkscape:window-maximized="1"
     inkscape:current-layer="svg2" /><g
     id="g4243"
     transform="translate(-0.03614107,-0.79539446)"><path
       inkscape:transform-center-y="-0.43249963"
       inkscape:transform-center-x="-1.4634829"
       style="opacity:1;fill:#dc682e;fill-opacity:1"
       id="path5"
       d="M 6.4597697,1.9987248 C 5.9076193,0.97253598 4.628839,0.5885356 3.6027333,1.1406413 2.5771161,1.6924841 2.1930718,2.9711823 2.7452221,3.9973711 3.2970646,5.0229877 4.5757627,5.4070319 5.60138,4.855189 6.6274858,4.3030833 7.0116117,3.0243413 6.4597697,1.9987248 Z M 5.153658,19.800438 C 4.1626504,19.188195 2.863557,19.49443 2.2518504,20.485257 1.639301,21.475695 1.9456163,22.774742 2.9366256,23.386983 3.9270184,23.999451 5.22611,23.693217 5.8384339,22.702164 6.4504121,21.712037 6.1437438,20.412333 5.153658,19.800438 Z M 6.7727471,7.0322112 C 8.6080587,6.0447047 10.719995,6.0838793 12.452387,6.9504672 L 13.995938,4.3691094 C 12.035521,3.3286417 9.7252994,3.0126831 7.5111217,3.5561658 7.3481846,4.3998142 6.8218501,5.1668901 6.0055284,5.6061195 5.1896982,6.0450843 4.2595585,6.0616776 3.4657442,5.7328181 1.7913064,7.280797 0.78201405,9.382851 0.57050506,11.592787 L 3.5757355,11.726632 C 3.8064904,9.8037537 4.937351,8.0197628 6.7727471,7.0322112 Z m 8.3438679,2.5055184 c 1.524827,2.8339404 0.602995,6.3281214 -2.036732,8.0631624 l 1.462878,2.625332 c 1.975702,-1.230945 3.331383,-3.112806 3.942989,-5.212655 -0.646744,-0.562606 -1.04481,-1.400232 -1.017743,-2.32391 0.02755,-0.925521 0.476806,-1.738238 1.157987,-2.260844 C 18.446111,9.6405339 18.161151,8.8623852 17.759327,8.1155832 17.068557,6.831764 16.113904,5.7802062 15.000612,4.9895026 L 13.382485,7.524189 c 0.696589,0.5203869 1.294855,1.1971399 1.734128,2.013542 z M 4.2669185,15.375509 C 3.8276457,14.559107 3.5925969,13.686921 3.5420935,12.819008 l -3.00671707,-0.04625 c 0.0458009,1.365077 0.39727019,2.741184 1.08808517,4.025085 0.401824,0.746803 0.8942783,1.413304 1.4535288,1.997359 0.8114424,-0.280514 1.7366357,-0.207121 2.524828,0.27927 0.7866576,0.48648 1.2653457,1.280094 1.3785075,2.129799 2.0893478,0.646575 4.4067481,0.552101 6.5225601,-0.418429 L 12.117668,18.117878 C 9.2148775,19.36578 5.7917879,18.209528 4.2669159,15.375508 Z M 18.320947,12.714816 c -0.03502,1.164302 0.879678,2.136113 2.043718,2.170637 1.164349,0.0351 2.136158,-0.879598 2.171295,-2.044071 0.03453,-1.16404 -0.88078,-2.135414 -2.045218,-2.170678 -1.163505,-0.03471 -2.134963,0.880642 -2.169795,2.044112 z"
       inkscape:connector-curvature="0" /><g
       transform="matrix(0.64075573,0,0,0.64075573,2.2907987,5.5729049)"
       style="opacity:1"
       sodipodi:docname="cinnamon-logo.svg"
       inkscape:version="0.91 r"
       id="Layer_1"><sodipodi:namedview
         showgrid="false"
         borderopacity="1"
         fit-margin-top="0"
         objecttolerance="10"
         gridtolerance="10"
         fit-margin-left="0"
         guidetolerance="10"
         pagecolor="#ffffff"
         inkscape:zoom="10.684685"
         bordercolor="#666666"
         inkscape:cx="-5.7135283"
         inkscape:cy="11.899999"
         inkscape:window-maximized="1"
         inkscape:pageopacity="0"
         inkscape:pageshadow="2"
         inkscape:window-width="1920"
         inkscape:window-height="1151"
         fit-margin-right="0"
         fit-margin-bottom="0"
         inkscape:window-x="0"
         inkscape:window-y="0"
         inkscape:current-layer="Layer_1"
         id="namedview3440" /><path
         style="fill:#dc682e"
         d="m 12.7,21.9 c 0.2,0 0.399,-0.101 0.7,-0.101 0.1,0 0.199,0 0.3,-0.1 0.2,0 0.5,-0.101 0.7,-0.2 0.1,0 0.199,0 0.3,-0.1 C 15,21.3 15.3,21.2 15.6,21.1 c 0.101,0 0.101,-0.1 0.2,-0.1 0.2,-0.1 0.5,-0.2 0.7,-0.3 0.1,0 0.2,-0.101 0.3,-0.2 0.2,-0.1 0.4,-0.2 0.5,-0.3 0.1,-0.1 0.2,-0.1 0.3,-0.2 0.2,-0.1 0.4,-0.3 0.601,-0.4 0.1,0 0.1,-0.1 0.2,-0.1 0.199,-0.2 0.5,-0.4 0.699,-0.6 0.1,-0.1 0.1,-0.1 0.2,-0.2 0.2,-0.2 0.3,-0.3 0.4,-0.5 0.1,-0.101 0.1,-0.2 0.2,-0.3 0.1,-0.2 0.2,-0.3 0.4,-0.5 0.1,-0.1 0.1,-0.2 0.2,-0.3 0.1,-0.199 0.3,-0.5 0.4,-0.699 0,0 0,-0.101 0.1,-0.101 0.1,-0.3 0.3,-0.5 0.4,-0.8 0,-0.1 0.1,-0.2 0.1,-0.3 0,-0.101 0.1,-0.2 0.1,-0.4 l -5.399,-6 -5.801,6.6 2.8,-5.6 -1.4,-2.5 -8.7,10 c 0,0.101 0.1,0.101 0.1,0.2 0.2,0.2 0.3,0.5 0.5,0.7 0.1,0.1 0.2,0.2 0.3,0.3 0.2,0.2 0.4,0.4 0.6,0.6 0.1,0.1 0.2,0.2 0.3,0.3 0.2,0.2 0.4,0.4 0.7,0.5 0.1,0.1 0.1,0.1 0.2,0.2 0.3,0.2 0.6,0.4 1,0.601 0.1,0 0.1,0.1 0.2,0.1 0.3,0.101 0.6,0.3 0.9,0.4 0.1,0 0.2,0.1 0.4,0.1 0.2,0.101 0.5,0.2 0.8,0.2 0.1,0 0.3,0.1 0.4,0.1 0.3,0.099 0.5,0.099 0.8,0.199 0.1,0 0.2,0 0.4,0.101 0.4,0 0.8,0.1 1.2,0.1 0.3,0 0.7,0 1,0 C 12.5,22 12.6,22 12.7,21.9 Z"
         inkscape:connector-curvature="0"
         id="XMLID_9_" /></g></g></svg>